# xmcd
#
# Track frame offsets: 
#        150
#        15571
#        31405
#        46316
#        58347
#        71480
#        83538
#        94948
#        108896
#        123564
#        138015
#        151178
#        166290
#        179985
#        190920
#        204885
#        219678
#        233752
#        249130
#        263089
#        275868
#        289981
#        304619
#
# Disc length: 4370 seconds
#
# Revision: 0
# Processed by: cddbd v1.5.2PL0 Copyright (c) Steve Scherf et al.
# Submitted via: ExactAudioCopy v0.99pb3
#
DISCID=46111017
DTITLE=Tommy Dorsey - Boogie Woogie - Classic Jazz Archive
DYEAR=1900
DGENRE=Jazz
TTITLE0=Humoresque
TTITLE1=Rollin' Home
TTITLE2=Beale Street Blues
TTITLE3=That Stolen Melody
TTITLE4=Barcarole
TTITLE5=Hymn To The Sun
TTITLE6=Night And Day
TTITLE7=Smoke Gets In Your Eyes
TTITLE8=Little White Lies
TTITLE9=I Never Knew
TTITLE10=Panama
TTITLE11=Washboard Blues
TTITLE12=Chinatown, My Chinatown
TTITLE13=The Sheik Of Araby
TTITLE14=Copenhagen
TTITLE15=Symphony In Riffs
TTITLE16=Ya Got Me
TTITLE17=Tin Roof Blues
TTITLE18=Cocktail For Two
TTITLE19=Down Home Rag
TTITLE20=Hawaiian War Chant
TTITLE21=Davenport Blues
TTITLE22=Milenberg Joys - Part 1 and 2
EXTD=
EXTT0=
EXTT1=
EXTT2=
EXTT3=
EXTT4=
EXTT5=
EXTT6=
EXTT7=
EXTT8=
EXTT9=
EXTT10=
EXTT11=
EXTT12=
EXTT13=
EXTT14=
EXTT15=
EXTT16=
EXTT17=
EXTT18=
EXTT19=
EXTT20=
EXTT21=
EXTT22=
PLAYORDER=
